<svg width="448" height="637" viewBox="0 0 448 637" fill="none" xmlns="http://www.w3.org/2000/svg">
<path d="M27.502 438C70.6686 525.333 112.606 610 241.5 636.5C321.9 636.5 370.667 617.167 385.001 588.5C405.227 516.988 410.746 497.271 427.002 394.5C432.82 357.72 436.335 315.389 438.373 282.086M253.001 206C299.159 206 427.002 141.5 427.002 141.5C427.002 141.5 445.799 160.772 438.373 282.086M253.001 206C193.501 206 116.977 178.191 96.5007 179.5C51.7007 180.286 44.4992 253 37.5005 275.5L105.803 283.5M253.001 206C285.001 208.577 295.298 223.907 299.132 238.5M362.001 291C386.001 319.5 439.002 314.5 447.002 291C445.235 287.374 442.224 284.388 438.373 282.086M362.001 291C353.486 284.033 342.586 274.647 331.002 275.5C362.001 425.5 385.001 445.5 307 434M362.001 291C377.061 271.056 421.514 272.01 438.373 282.086M105.803 283.5C116.001 267 202.001 245 222.001 295C188.501 316.5 148.87 317 105.803 283.5ZM228.501 539.5C292.633 539.5 336.133 538 380.133 515M228.501 539.5C260.133 545 257.825 552.962 309.132 548.5C343.632 545.5 367.633 532.5 380.133 515M228.501 539.5C240.501 531 271.632 520 299.132 526C306.632 526 309.132 526.5 320.632 521.5C332.132 516.5 362.776 507.5 380.133 515M378.719 249C382.886 235.333 404.207 218.1 439.807 220.5M1.13023 191.341C-2.53644 110.341 1.13022 0.500048 281.501 0.5C427.002 0.499975 427.002 27.5 427.002 61.5" stroke="black"/>
</svg>
